<?xml version="1.0" encoding="UTF-8"?>
<svg height="16px" viewBox="0 0 16 16" width="16px" xmlns="http://www.w3.org/2000/svg" xmlns:xlink="http://www.w3.org/1999/xlink">
    <filter id="a" height="100%" width="100%" x="0%" y="0%">
        <feColorMatrix color-interpolation-filters="sRGB" values="0 0 0 0 1 0 0 0 0 1 0 0 0 0 1 0 0 0 1 0"/>
    </filter>
    <mask id="b">
        <g filter="url(#a)">
            <rect fill-opacity="0.15" height="19.2" width="19.2" x="-1.6" y="-1.6"/>
        </g>
    </mask>
    <clipPath id="c">
        <rect height="152" width="192"/>
    </clipPath>
    <mask id="d">
        <g filter="url(#a)">
            <rect fill-opacity="0.15" height="19.2" width="19.2" x="-1.6" y="-1.6"/>
        </g>
    </mask>
    <clipPath id="e">
        <rect height="152" width="192"/>
    </clipPath>
    <g mask="url(#b)">
        <g clip-path="url(#c)" transform="matrix(1 0 0 1 -168 -16)">
            <path d="m 33.574219 104.378906 c 0 -1.089844 0.988281 -2.046875 2.035156 -2.046875 l 69.992187 -0.023437 c 5.640626 0 8.367188 -4.625 8.367188 -10.253906 l -80.394531 0.007812 z m 0 0"/>
        </g>
    </g>
    <g mask="url(#d)">
        <g clip-path="url(#e)" transform="matrix(1 0 0 1 -168 -16)">
            <path d="m 80.914062 108.488281 h 16.464844 v 20.53125 l -8.234375 -7.1875 l -8.230469 7.1875 z m 0 0"/>
        </g>
    </g>
    <g fill="#222222">
        <path d="m 3.585938 1.714844 v 3.601562 c 0 1.402344 0.308593 2.515625 0.898437 3.46875 c 0.398437 0.640625 0.902344 1.195313 1.488281 1.761719 l 0.667969 -2.078125 c -0.15625 -0.191406 -0.292969 -0.378906 -0.410156 -0.5625 c -0.425781 -0.683594 -0.644531 -1.414062 -0.644531 -2.589844 v -3.601562 z m 0 0"/>
        <path d="m 8.824219 2.617188 l -3.21875 11.710937 h 2 l 0.78125 -2.703125 h 4.4375 l 0.78125 2.703125 h 2 l -3.21875 -11.710937 z m 1.5625 1.800781 h 0.4375 l 1.5 5.40625 h -3.4375 z m 0 0"/>
        <path d="m 3.605469 1.714844 v 3.601562 c 0 1.175782 -0.222657 1.90625 -0.644531 2.589844 c -0.425782 0.679688 -1.101563 1.339844 -2.0625 2.203125 l 1.414062 1.277344 c 0.980469 -0.886719 1.804688 -1.652344 2.394531 -2.601563 c 0.589844 -0.953125 0.898438 -2.066406 0.898438 -3.46875 v -3.601562 z m 0 0"/>
        <path d="m 0.605469 4.417969 v 1.800781 h 6.5625 l 0.511719 -1.800781 z m 0 0"/>
    </g>
</svg>
