<?xml version="1.0" encoding="UTF-8"?>
<svg height="128px" viewBox="0 0 128 128" width="128px" xmlns="http://www.w3.org/2000/svg" xmlns:xlink="http://www.w3.org/1999/xlink">
    <filter id="a" height="100%" width="100%" x="0%" y="0%">
        <feColorMatrix color-interpolation-filters="sRGB" values="0 0 0 0 1 0 0 0 0 1 0 0 0 0 1 0 0 0 1 0"/>
    </filter>
    <linearGradient id="b" gradientTransform="matrix(0.264043 0 0 0.256661 -1.884995 56.554794)" gradientUnits="userSpaceOnUse" x1="379.205627" x2="408" y1="48" y2="48">
        <stop offset="0" stop-color="#eeeeec"/>
        <stop offset="0.454979" stop-color="#ffffff"/>
        <stop offset="1" stop-color="#babdb6"/>
    </linearGradient>
    <mask id="c">
        <g filter="url(#a)">
            <rect fill-opacity="0.15" height="153.6" width="153.6" x="-12.8" y="-12.8"/>
        </g>
    </mask>
    <clipPath id="d">
        <rect height="152" width="192"/>
    </clipPath>
    <mask id="e">
        <g filter="url(#a)">
            <rect fill-opacity="0.15" height="153.6" width="153.6" x="-12.8" y="-12.8"/>
        </g>
    </mask>
    <clipPath id="f">
        <rect height="152" width="192"/>
    </clipPath>
    <g fill="#241f31">
        <path d="m 74.371094 33.898438 l 1.636718 -8.097657 l 1.675782 3.625 l 2.914062 0.117188 z m 0 0"/>
        <path d="m 74.417969 33.953125 l -4.171875 -8.214844 l 0.128906 4.714844 l -5.355469 0.003906 z m 0 0"/>
        <path d="m 74.351562 33.949219 l -9.082031 2.75 l 6.925781 -0.046875 l 2.082032 4.75 z m 0 0"/>
        <path d="m 74.417969 33.957031 l 4.007812 -0.09375 l 0.726563 4.503907 z m 0 0"/>
    </g>
    <path d="m 31.75 16.515625 c -2.097656 0 -4.003906 0.773437 -5.453125 2.054687 h -2.78125 v 94.460938 c 0 5.445312 4.5 10.253906 10.324219 10.253906 h 63.773437 c 4.558594 0 8.230469 -3.660156 8.230469 -8.210937 v -90.34375 c 0 -4.550781 -3.671875 -8.214844 -8.230469 -8.214844 z m 0 0" fill="#c64600"/>
    <path d="m 33.808594 16.515625 h 63.804687 c 4.546875 0 8.230469 3.675781 8.230469 8.214844 v 88.289062 c 0 4.535157 -3.683594 8.214844 -8.230469 8.214844 h -63.804687 c -4.546875 0 -8.234375 -3.679687 -8.234375 -8.214844 v -88.289062 c 0 -4.539063 3.6875 -8.214844 8.234375 -8.214844 z m 0 0" fill="url(#b)"/>
    <g mask="url(#c)">
        <g clip-path="url(#d)" transform="matrix(1 0 0 1 -8 -16)">
            <path d="m 33.574219 104.378906 c 0 -1.089844 0.988281 -2.046875 2.035156 -2.046875 l 69.992187 -0.023437 c 5.640626 0 8.367188 -4.625 8.367188 -10.253906 l -80.394531 0.007812 z m 0 0"/>
        </g>
    </g>
    <path d="m 31.75 8.300781 c -2.097656 0 -4.003906 0.777344 -5.453125 2.054688 h -2.78125 v 65.707031 l 2.027344 10.277344 c 0 -1.269532 0.839843 -2.066406 2.070312 -2.066406 h 70 c 4.558594 0 8.230469 -3.664063 8.230469 -8.210938 v -59.546875 c 0 -4.550781 -3.671875 -8.214844 -8.230469 -8.214844 z m 0 0" fill="#c64600"/>
    <path d="m 23.515625 8.300781 v 73.921875 h 74.097656 c 4.558594 0 8.230469 -3.664062 8.230469 -8.214844 v -57.492187 c 0 -4.550781 -3.671875 -8.214844 -8.230469 -8.214844 h -70.011719 l -2.027343 2.054688 v -2.054688 z m 0 0" fill="#ff7800"/>
    <path d="m 23.515625 20.621094 h 82.328125 v 49.28125 h -82.328125 z m 0 0" fill="#ffa348"/>
    <path d="m 25.574219 8.285156 l 2.058593 0.015625 v 73.921875 h -2.058593 z m 0 0" fill="#ffbe6f"/>
    <path d="m 25.574219 110.921875 v 2.097656 c 0 4.550781 3.671875 8.214844 8.234375 8.214844 h 63.804687 c 4.558594 0 8.230469 -3.664063 8.230469 -8.214844 v -2.097656 c 0 4.546875 -3.671875 8.210937 -8.230469 8.210937 h -63.804687 c -4.5625 0 -8.234375 -3.664062 -8.234375 -8.210937 z m 0 0" fill="#e66100"/>
    <path d="m 57.605469 111.929688 h 26.371093 m -38.992187 -4.105469 h 22.769531 m -14.535156 -4.042969 h 41.292969 m -47.324219 -4.109375 h 43.222656" fill="none" stroke="#cbcbc9" stroke-linecap="round" stroke-opacity="0.462745" stroke-width="2.05574"/>
    <g mask="url(#e)">
        <g clip-path="url(#f)" transform="matrix(1 0 0 1 -8 -16)">
            <path d="m 80.914062 108.488281 h 16.464844 v 20.53125 l -8.234375 -7.1875 l -8.230469 7.1875 z m 0 0"/>
        </g>
    </g>
    <path d="m 72.914062 90.433594 h 16.464844 v 20.535156 l -8.234375 -7.1875 l -8.230469 7.1875 z m 0 0" fill="#ff7800"/>
    <path d="m 53.03125 29.175781 v 9.707031 c 0 3.769532 0.890625 6.765626 2.601562 9.332032 c 1.152344 1.726562 2.609376 3.222656 4.308594 4.75 l 1.933594 -5.601563 c -0.453125 -0.511719 -0.847656 -1.015625 -1.1875 -1.515625 c -1.234375 -1.839844 -1.867188 -3.800781 -1.867188 -6.964844 v -9.707031 z m 0 0" fill="#c64600"/>
    <path d="m 68.195312 31.601562 l -9.320312 31.539063 h 5.792969 l 2.261719 -7.277344 h 12.847656 l 2.261718 7.277344 h 5.789063 l -9.320313 -31.539063 z m 4.523438 4.851563 h 1.265625 l 4.34375 14.558594 h -9.953125 z m 0 0" fill="#c64600"/>
    <path d="m 53.085938 29.175781 v 9.707031 c 0 3.164063 -0.644532 5.125 -1.867188 6.964844 c -1.230469 1.835938 -3.1875 3.609375 -5.96875 5.941406 l 4.09375 3.429688 c 2.839844 -2.378906 5.222656 -4.445312 6.933594 -7.003906 c 1.707031 -2.566406 2.597656 -5.5625 2.597656 -9.332032 v -9.707031 z m 0 0" fill="#c64600"/>
    <path d="m 44.402344 36.453125 v 4.855469 h 19 l 1.480468 -4.855469 z m 0 0" fill="#c64600"/>
</svg>
